<svg xmlns="http://www.w3.org/2000/svg" viewBox="0 0 64 64" width="64" height="64">
  <!-- Background Circle -->
  <circle cx="32" cy="32" r="30" fill="#1a73e8"/>
  
  <!-- Gear Icon -->
  <path d="M32 16c-1.8 0-3.5 0.3-5.2 0.8l-1.7-4.1c-0.2-0.5-0.7-0.8-1.2-0.8h-3.4c-0.5 0-1 0.3-1.2 0.8l-1.7 4.1c-1.7-0.5-3.4-0.8-5.2-0.8-1.8 0-3.5 0.3-5.2 0.8l-1.7-4.1c-0.2-0.5-0.7-0.8-1.2-0.8h-3.4c-0.5 0-1 0.3-1.2 0.8l-1.7 4.1c-1.7-0.5-3.4-0.8-5.2-0.8v3.4c0 0.5 0.3 1 0.8 1.2l4.1 1.7c-0.5 1.7-0.8 3.4-0.8 5.2 0 1.8 0.3 3.5 0.8 5.2l-4.1 1.7c-0.5 0.2-0.8 0.7-0.8 1.2v3.4c0 0.5 0.3 1 0.8 1.2l4.1 1.7c0.5 1.7 0.8 3.4 0.8 5.2 0 1.8-0.3 3.5-0.8 5.2l-4.1 1.7c-0.5 0.2-0.8 0.7-0.8 1.2v3.4c0 0.5 0.3 1 0.8 1.2l4.1 1.7c0.5 1.7 0.8 3.4 0.8 5.2h3.4c0.5 0 1-0.3 1.2-0.8l1.7-4.1c1.7 0.5 3.4 0.8 5.2 0.8 1.8 0 3.5-0.3 5.2-0.8l1.7 4.1c0.2 0.5 0.7 0.8 1.2 0.8h3.4c0.5 0 1-0.3 1.2-0.8l1.7-4.1c1.7 0.5 3.4 0.8 5.2 0.8 1.8 0 3.5-0.3 5.2-0.8l1.7 4.1c0.2 0.5 0.7 0.8 1.2 0.8h3.4c0.5 0 1-0.3 1.2-0.8l1.7-4.1c1.7 0.5 3.4 0.8 5.2 0.8v-3.4c0-0.5-0.3-1-0.8-1.2l-4.1-1.7c0.5-1.7 0.8-3.4 0.8-5.2 0-1.8-0.3-3.5-0.8-5.2l4.1-1.7c0.5-0.2 0.8-0.7 0.8-1.2v-3.4c0-0.5-0.3-1-0.8-1.2l-4.1-1.7c-0.5-1.7-0.8-3.4-0.8-5.2 0-1.8 0.3-3.5 0.8-5.2l4.1-1.7c0.5-0.2 0.8-0.7 0.8-1.2v-3.4c0-0.5-0.3-1-0.8-1.2l-4.1-1.7c-0.5-1.7-0.8-3.4-0.8-5.2h-3.4c-0.5 0-1 0.3-1.2 0.8l-1.7 4.1c-1.7-0.5-3.4-0.8-5.2-0.8z" fill="#1a73e8"/>
  
  <!-- Small Gear Center -->
  <circle cx="32" cy="32" r="8" fill="#ffffff"/>
  
  <!-- Mask Shape -->
  <path d="M26 38c0 3.3 2.7 6 6 6s6-2.7 6-6v-12h-12v12z" fill="#ffffff"/>
  
  <!-- Eyes -->
  <circle cx="28" cy="32" r="2" fill="#1a73e8"/>
  <circle cx="36" cy="32" r="2" fill="#1a73e8"/>
</svg>