<svg xmlns="http://www.w3.org/2000/svg" viewBox="0 0 128 128" width="128" height="128">
  <circle cx="64" cy="64" r="60" fill="#1a73e8"/>
  <path d="M64 32c-3.6 0-7 0.6-10.4 1.6l-3.4-8.2c-0.4-1-1.4-1.6-2.4-1.6h-6.8c-1 0-2 0.6-2.4 1.6l-3.4 8.2c-3.4-1-7-1.6-10.4-1.6-3.6 0-7 0.6-10.4 1.6l-3.4-8.2c-0.4-1-1.4-1.6-2.4-1.6h-6.8c-1 0-2 0.6-2.4 1.6l-3.4 8.2c-3.4-1-7-1.6-10.4-1.6v6.8c0 1 0.6 2 1.6 2.4l8.2 3.4c-1 3.4-1.6 7-1.6 10.4 0 3.6 0.6 7 1.6 10.4l-8.2 3.4c-1 0.4-1.6 1.4-1.6 2.4v6.8c0 1 0.6 2 1.6 2.4l8.2 3.4c1 3.4 1.6 7 1.6 10.4 0 3.6-0.6 7-1.6 10.4l-8.2 3.4c-1 0.4-1.6 1.4-1.6 2.4v6.8c0 1 0.6 2 1.6 2.4l8.2 3.4c1 3.4 1.6 7 1.6 10.4h6.8c1 0 2-0.6 2.4-1.6l3.4-8.2c3.4 1 7 1.6 10.4 1.6 3.6 0 7-0.6 10.4-1.6l3.4 8.2c0.4 1 1.4 1.6 2.4 1.6h6.8c1 0 2-0.6 2.4-1.6l3.4-8.2c3.4 1 7 1.6 10.4 1.6 3.6 0 7-0.6 10.4-1.6l3.4 8.2c0.4 1 1.4 1.6 2.4 1.6h6.8c1 0 2-0.6 2.4-1.6l3.4-8.2c3.4 1 7 1.6 10.4 1.6v-6.8c0-1-0.6-2-1.6-2.4l-8.2-3.4c1-3.4 1.6-7 1.6-10.4 0-3.6-0.6-7-1.6-10.4l8.2-3.4c1-0.4 1.6-1.4 1.6-2.4v-6.8c0-1-0.6-2-1.6-2.4l-8.2-3.4c-1-3.4-1.6-7-1.6-10.4 0-3.6 0.6-7 1.6-10.4l8.2-3.4c1-0.4 1.6-1.4 1.6-2.4v-6.8c0-1-0.6-2-1.6-2.4l-8.2-3.4c-1-3.4-1.6-7-1.6-10.4h-6.8c-1 0-2 0.6-2.4 1.6l-3.4 8.2c-3.4-1-7-1.6-10.4-1.6z" fill="#1a73e8"/>
  <circle cx="64" cy="64" r="16" fill="#ffffff"/>
  <path d="M52 76c0 6.6 5.4 12 12 12s12-5.4 12-12v-24h-24v24z" fill="#ffffff"/>
  <circle cx="56" cy="64" r="4" fill="#1a73e8"/>
  <circle cx="72" cy="64" r="4" fill="#1a73e8"/>
</svg> 