<svg xmlns="http://www.w3.org/2000/svg" viewBox="0 0 48 48" width="48" height="48">
  <circle cx="24" cy="24" r="23" fill="#1a73e8"/>
  <path d="M24 14c-1.5 0-2.9 0.2-4.3 0.7l-1.4-3.4c-0.2-0.4-0.6-0.7-1-0.7h-2.8c-0.4 0-0.8 0.3-1 0.7l-1.4 3.4c-1.4-0.4-2.8-0.7-4.3-0.7-1.5 0-2.9 0.2-4.3 0.7l-1.4-3.4c-0.2-0.4-0.6-0.7-1-0.7h-2.8c-0.4 0-0.8 0.3-1 0.7l-1.4 3.4c-1.4-0.4-2.8-0.7-4.3-0.7v2.8c0 0.4 0.3 0.8 0.7 1l3.4 1.4c-0.4 1.4-0.7 2.8-0.7 4.3 0 1.5 0.2 2.9 0.7 4.3l-3.4 1.4c-0.4 0.2-0.7 0.6-0.7 1v2.8c0 0.4 0.3 0.8 0.7 1l3.4 1.4c0.4 1.4 0.7 2.8 0.7 4.3 0 1.5-0.2 2.9-0.7 4.3l-3.4 1.4c-0.4 0.2-0.7 0.6-0.7 1v2.8c0 0.4 0.3 0.8 0.7 1l3.4 1.4c0.4 1.4 0.7 2.8 0.7 4.3h2.8c0.4 0 0.8-0.3 1-0.7l1.4-3.4c1.4 0.4 2.8 0.7 4.3 0.7 1.5 0 2.9-0.2 4.3-0.7l1.4 3.4c0.2 0.4 0.6 0.7 1 0.7h2.8c0.4 0 0.8-0.3 1-0.7l1.4-3.4c1.4 0.4 2.8 0.7 4.3 0.7 1.5 0 2.9-0.2 4.3-0.7l1.4 3.4c0.2 0.4 0.6 0.7 1 0.7h2.8c0.4 0 0.8-0.3 1-0.7l1.4-3.4c1.4 0.4 2.8 0.7 4.3 0.7v-2.8c0-0.4-0.3-0.8-0.7-1l-3.4-1.4c0.4-1.4 0.7-2.8 0.7-4.3 0-1.5-0.2-2.9-0.7-4.3l3.4-1.4c0.4-0.2 0.7-0.6 0.7-1v-2.8c0-0.4-0.3-0.8-0.7-1l-3.4-1.4c-0.4-1.4-0.7-2.8-0.7-4.3 0-1.5 0.2-2.9 0.7-4.3l3.4-1.4c0.4-0.2 0.7-0.6 0.7-1v-2.8c0-0.4-0.3-0.8-0.7-1l-3.4-1.4c-0.4-1.4-0.7-2.8-0.7-4.3h-2.8c-0.4 0-0.8 0.3-1 0.7l-1.4 3.4c-1.4-0.4-2.8-0.7-4.3-0.7z" fill="#1a73e8"/>
  <circle cx="24" cy="24" r="7" fill="#ffffff"/>
  <path d="M19 29c0 2.8 2.2 5 5 5s5-2.2 5-5v-9h-10v9z" fill="#ffffff"/>
  <circle cx="21" cy="24" r="1.5" fill="#1a73e8"/>
  <circle cx="27" cy="24" r="1.5" fill="#1a73e8"/>
</svg> 